<svg version="1.1" xmlns="http://www.w3.org/2000/svg" xmlns:xlink="http://www.w3.org/1999/xlink" viewBox="0,0,256,256"><g fill="#0097ff" fill-rule="nonzero" stroke="none" stroke-width="1" stroke-linecap="butt" stroke-linejoin="miter" stroke-miterlimit="10" stroke-dasharray="" stroke-dashoffset="0" font-family="none" font-weight="none" font-size="none" text-anchor="none" style="mix-blend-mode: normal"><g transform="scale(8,8)"><path d="M16,8c-0.55273,0 -1,0.44727 -1,1v6h-6c-0.55273,0 -1,0.44727 -1,1c0,0.55273 0.44727,1 1,1h6v6c0,0.55273 0.44727,1 1,1c0.55273,0 1,-0.44727 1,-1v-6h6c0.55273,0 1,-0.44727 1,-1c0,-0.55273 -0.44727,-1 -1,-1h-6v-6c0,-0.55273 -0.44727,-1 -1,-1z"></path></g></g></svg>
