
<svg width="65" height="64" viewBox="0 0 65 64" fill="none" xmlns="http://www.w3.org/2000/svg">
<path d="M9.12183 28.1389L29.5878 48.65C30.0021 49.0643 30.494 49.393 31.0353 49.6173C31.5767 49.8415 32.1569 49.9569 32.7428 49.9569C33.3288 49.9569 33.909 49.8415 34.4503 49.6173C34.9917 49.393 35.4835 49.0643 35.8978 48.65L56.4713 28.1389L35.8974 7.59507C35.4831 7.18071 34.9913 6.85202 34.4499 6.62776C33.9086 6.40351 33.3284 6.28809 32.7424 6.28809C32.1565 6.28809 31.5763 6.40351 31.0349 6.62776C30.4936 6.85202 30.0017 7.18071 29.5874 7.59507L9.12183 28.1389Z" fill="#669DF6" stroke="#669DF6" stroke-linejoin="round"/>
<path d="M9.12134 42.1301L9.12154 39.02" stroke="#3C4043" stroke-miterlimit="10"/>
<path d="M56.4711 35.4478L56.4721 59.6898H9.12012L9.12112 45.2678" stroke="#3C4043" stroke-miterlimit="10"/>
<path d="M9.12158 35.9929V28.1391L29.588 48.6502C30.0023 49.0645 30.4942 49.3932 31.0355 49.6174C31.5768 49.8417 32.157 49.9571 32.743 49.9571C33.3289 49.9571 33.9091 49.8417 34.4505 49.6174C34.9918 49.3932 35.4837 49.0645 35.898 48.6502L56.4714 28.1226V35.448" stroke="#3C4043" stroke-linejoin="round"/>
<path d="M9.12061 59.6898L24.8743 43.936" stroke="#3C4043" stroke-miterlimit="10"/>
<path d="M56.421 59.6898L40.6672 43.936" stroke="#3C4043" stroke-miterlimit="10"/>
<path d="M56.4331 44.1924C56.2228 48.206 54.5449 52.0023 51.7185 54.8596C48.892 57.717 45.1141 59.436 41.103 59.6899H56.433V44.1924H56.4331Z" fill="#3C4043"/>
<path d="M16.822 12.2661L16.8237 35.8574L29.588 48.6499C30.0023 49.0643 30.4942 49.3929 31.0355 49.6172C31.5769 49.8414 32.1571 49.9569 32.743 49.9569C33.329 49.9569 33.9092 49.8414 34.4505 49.6172C34.9919 49.3929 35.4837 49.0643 35.898 48.6499L48.818 35.7588L48.808 12.2665L16.822 12.2661Z" fill="white" stroke="#3C4043" stroke-miterlimit="10"/>
<path d="M20.853 19.9951H44.7658" stroke="#3C4043" stroke-miterlimit="10"/>
<path d="M20.853 27.9751H44.7658" stroke="#3C4043" stroke-miterlimit="10"/>
<path d="M20.853 35.9556H44.7658" stroke="#3C4043" stroke-miterlimit="10"/>
</svg>
