<svg version="1.1" xmlns="http://www.w3.org/2000/svg" xmlns:xlink="http://www.w3.org/1999/xlink" viewBox="0,0,256,256"><g fill="#000000" fill-rule="nonzero" stroke="none" stroke-width="1" stroke-linecap="butt" stroke-linejoin="miter" stroke-miterlimit="10" stroke-dasharray="" stroke-dashoffset="0" font-family="none" font-weight="none" font-size="none" text-anchor="none" style="mix-blend-mode: normal"><g transform="scale(5.12,5.12)"><path d="M3.90625,2.96875c-0.04297,0.00781 -0.08594,0.01953 -0.125,0.03125c-0.375,0.06641 -0.67578,0.33984 -0.78125,0.70313c-0.10547,0.36719 0.00391,0.75781 0.28125,1.01563l42,42c0.39844,0.39844 1.03906,0.39844 1.4375,0c0.39844,-0.39844 0.39844,-1.03906 0,-1.4375l-7.625,-7.625c5.67188,-3.40625 9.44531,-7.69922 9.71875,-8.0625c0.30078,-0.30078 0.30078,-0.88281 0,-1.28125c-0.5,-0.5 -10.8125,-12.3125 -23.8125,-12.3125c-2.27344,0 -4.47656,0.36719 -6.59375,0.96875l-13.6875,-13.6875c-0.20703,-0.22266 -0.50781,-0.33594 -0.8125,-0.3125zM25,18c2.60156,0 5.19922,0.50781 7.5,1.40625c1.60156,1.80078 2.5,4.19531 2.5,6.59375c0,2.11719 -0.69922,4.12109 -1.8125,5.75l-3.65625,-3.65625c0.30078,-0.63672 0.46875,-1.35937 0.46875,-2.09375c0,-2.80078 -2.19922,-5 -5,-5c-0.73437,0 -1.45703,0.16797 -2.09375,0.46875l-2.84375,-2.84375c1.57031,-0.37891 3.21094,-0.625 4.9375,-0.625zM14.5,18.5c-7.69922,3.5 -13.01172,9.51172 -13.3125,9.8125c-0.30078,0.39844 -0.30078,0.88281 0,1.28125c0.5,0.60156 10.8125,12.40625 23.8125,12.40625c3.80078,0 7.39844,-1.00781 10.5,-2.40625l-1.5,-1.59375c-2.80078,1.19922 -5.80078,2 -9,2c-10.39844,0 -19.29297,-8.5 -21.59375,-11c1.5,-1.5 5.48047,-5.39453 10.78125,-8.09375c-0.80078,1.5 -1.1875,3.29297 -1.1875,5.09375c0,6.60156 5.39844,12 12,12c2.5,0 4.91406,-0.79297 6.8125,-2.09375l-1.40625,-1.40625c-1.60156,0.89844 -3.40625,1.5 -5.40625,1.5c-5.5,0 -10,-4.5 -10,-10c0,-1.89844 0.59375,-3.80469 1.59375,-5.40625zM35.8125,20.90625c5.30078,2.69922 9.28125,6.59375 10.78125,8.09375c-1.33594,1.33594 -4.57031,4.55859 -9,7.15625l-2.96875,-2.96875c1.48438,-2.00391 2.375,-4.46875 2.375,-7.1875c0,-1.80078 -0.38672,-3.59375 -1.1875,-5.09375zM20.3125,24.3125c-0.19922,0.60156 -0.3125,1.08594 -0.3125,1.6875c0,2.80078 2.19922,5 5,5c0.60156,0 1.08594,-0.11328 1.6875,-0.3125z"></path></g></g></svg>
