<svg version="1.1" xmlns="http://www.w3.org/2000/svg" xmlns:xlink="http://www.w3.org/1999/xlink" viewBox="0,0,256,256"><g fill="#050505" fill-rule="nonzero" stroke="none" stroke-width="1" stroke-linecap="butt" stroke-linejoin="miter" stroke-miterlimit="10" stroke-dasharray="" stroke-dashoffset="0" font-family="none" font-weight="none" font-size="none" text-anchor="none" style="mix-blend-mode: normal"><g transform="scale(8.53333,8.53333)"><path d="M15,3c-6.61547,0 -12,5.38453 -12,12c0,6.61547 5.38453,12 12,12c6.61547,0 12,-5.38453 12,-12c0.0051,-0.36064 -0.18438,-0.69608 -0.49587,-0.87789c-0.3115,-0.18181 -0.69676,-0.18181 -1.00825,0c-0.3115,0.18181 -0.50097,0.51725 -0.49587,0.87789c0,5.53453 -4.46547,10 -10,10c-5.53453,0 -10,-4.46547 -10,-10c0,-5.53453 4.46547,-10 10,-10c2.51197,0 4.79048,0.93102 6.54492,2.45508l-2.54492,2.54492h6v-6l-2.03906,2.03906c-2.12044,-1.88369 -4.90709,-3.03906 -7.96094,-3.03906z"></path></g></g></svg>
